# xmcd
#
# Track frame offsets:
# 150
# 13632
# 27560
# 40280
# 53455
# 66770
# 77635
# 88127
# 104632
# 118377
# 131440
# 143227
# 156335
# 168675
#
# Disc length: 2426 seconds
#
#
# Revision: 2
# Processed by: cddbd v1.5.1PL0 Copyright (c) Steve Scherf et al.
# Submitted via: FreeRIP 2.80 
#
DISCID=c509780e
DTITLE=Dolores Duran - BIS Volume 1
DYEAR=1900
DGENRE=
TTITLE0=A noite do meu bem
TTITLE1=Manias
TTITLE2=Escurinho
TTITLE3=Solidao
TTITLE4=Estatuto de boite
TTITLE5=Conceicao
TTITLE6=Coisas de mulher
TTITLE7=Nao me culpes
TTITLE8=Na asa do vento
TTITLE9=Estrada da saudade
TTITLE10=Ave Maria lola
TTITLE11=Pano legal
TTITLE12=Nossos destinos
TTITLE13=Only you
EXTD=
EXTT0=
EXTT1=
EXTT2=
EXTT3=
EXTT4=
EXTT5=
EXTT6=
EXTT7=
EXTT8=
EXTT9=
EXTT10=
EXTT11=
EXTT12=
EXTT13=
PLAYORDER=
